<svg xmlns="http://www.w3.org/2000/svg" viewBox="0 0 512 512" width="512" height="512" role="img" aria-label="Firefly Focus">
  <title>Firefly Focus</title>
  <defs>
    <radialGradient id="bg" cx="50%" cy="32%" r="78%">
      <stop offset="0" stop-color="#243350"/>
      <stop offset="0.55" stop-color="#131f36"/>
      <stop offset="1" stop-color="#070c18"/>
    </radialGradient>
    <linearGradient id="ring" x1="0" y1="0" x2="0" y2="1">
      <stop offset="0" stop-color="#fcd34d"/>
      <stop offset="0.55" stop-color="#fb923c"/>
      <stop offset="1" stop-color="#f97316"/>
    </linearGradient>
    <radialGradient id="core" cx="50%" cy="42%" r="62%">
      <stop offset="0" stop-color="#fffdf6"/>
      <stop offset="0.45" stop-color="#fef3c7"/>
      <stop offset="1" stop-color="#fcd34d"/>
    </radialGradient>
    <radialGradient id="halo" cx="50%" cy="50%" r="50%">
      <stop offset="0" stop-color="#fde68a" stop-opacity="0.95"/>
      <stop offset="0.45" stop-color="#fbbf24" stop-opacity="0.5"/>
      <stop offset="1" stop-color="#f59e0b" stop-opacity="0"/>
    </radialGradient>
    <filter id="soft" x="-60%" y="-60%" width="220%" height="220%"><feGaussianBlur stdDeviation="7"/></filter>
    <filter id="blur2" x="-120%" y="-120%" width="340%" height="340%"><feGaussianBlur stdDeviation="15"/></filter>
  </defs>

  <rect x="24" y="24" width="464" height="464" rx="116" fill="url(#bg)"/>
  <rect x="24" y="24" width="464" height="464" rx="116" fill="none" stroke="#ffffff" stroke-opacity="0.07" stroke-width="2"/>
  <circle cx="256" cy="150" r="132" fill="url(#halo)" opacity="0.34" filter="url(#blur2)"/>
  <path d="M310.9 134.2 A130 130 0 1 1 201.1 134.2" fill="none" stroke="url(#ring)" stroke-width="26" stroke-linecap="round" opacity="0.55" filter="url(#soft)"/>
  <path d="M310.9 134.2 A130 130 0 1 1 201.1 134.2" fill="none" stroke="url(#ring)" stroke-width="26" stroke-linecap="round"/>
  <circle cx="234" cy="150" r="6" fill="#fcd34d" opacity="0.5"/>
  <circle cx="220" cy="176" r="4.5" fill="#fbbf24" opacity="0.32"/>
  <circle cx="211" cy="200" r="3.2" fill="#f59e0b" opacity="0.2"/>
  <circle cx="256" cy="120" r="52" fill="url(#halo)"/>
  <g fill="#fffdf6" fill-opacity="0.16">
    <ellipse cx="238" cy="116" rx="20" ry="12" transform="rotate(-24 238 116)"/>
    <ellipse cx="274" cy="116" rx="20" ry="12" transform="rotate(24 274 116)"/>
  </g>
  <circle cx="256" cy="120" r="15" fill="url(#core)"/>
  <circle cx="256" cy="120" r="15" fill="none" stroke="#fffdf6" stroke-opacity="0.6" stroke-width="1.5"/>
</svg>
